name rise38.3101peak57.3503fall81.6963.mot
datacolumns 19
datarows 33
range 9.08163400000000 9.13497000000000
endheader
time	ground_force1_vx	ground_force1_vy	ground_force1_vz	ground_force1_px	ground_force1_py	ground_force1_pz	ground_force2_vx	ground_force2_vy	ground_force2_vz	ground_force2_px	ground_force2_py	ground_force2_pz	ground_torque1_x	ground_torque1_y	ground_torque1_z	ground_torque2_x	ground_torque2_y	ground_torque2_z	
9.08163400000000	11.92211100000000	705.96645699999999	37.20532000000000	0.23587300000000	0.00000000000000	0.08166100000000	0.00000000000000	0.00000000000000	0.00000000000000	0.00000000000000	0.00000000000000	0.00000000000000	0.00000000000000	15.41641400000000	0.00000000000000	0.00000000000000	0.00000000000000	0.00000000000000	
9.08329900000000	11.46652300000000	706.09177699999998	37.17676400000000	0.23510100000000	0.00000000000000	0.08164000000000	0.00000000000000	0.00000000000000	0.00000000000000	0.00000000000000	0.00000000000000	0.00000000000000	0.00000000000000	15.44677100000000	0.00000000000000	0.00000000000000	0.00000000000000	0.00000000000000	
9.08496900000000	11.00738200000000	706.21871399999998	37.15050400000000	0.23434300000000	0.00000000000000	0.08161800000000	0.00000000000000	0.00000000000000	0.00000000000000	0.00000000000000	0.00000000000000	0.00000000000000	0.00000000000000	15.48060200000000	0.00000000000000	0.00000000000000	0.00000000000000	0.00000000000000	
9.08663600000000	10.54431400000000	706.34692800000005	37.12650300000000	0.23359700000000	0.00000000000000	0.08159500000000	0.00000000000000	0.00000000000000	0.00000000000000	0.00000000000000	0.00000000000000	0.00000000000000	0.00000000000000	15.51784400000000	0.00000000000000	0.00000000000000	0.00000000000000	0.00000000000000	
9.08830500000000	10.07693600000000	706.47621800000002	37.10473000000000	0.23286200000000	0.00000000000000	0.08157000000000	0.00000000000000	0.00000000000000	0.00000000000000	0.00000000000000	0.00000000000000	0.00000000000000	0.00000000000000	15.55843300000000	0.00000000000000	0.00000000000000	0.00000000000000	0.00000000000000	
9.08997000000000	9.60485900000000	706.60652600000003	37.08516200000000	0.23213600000000	0.00000000000000	0.08154500000000	0.00000000000000	0.00000000000000	0.00000000000000	0.00000000000000	0.00000000000000	0.00000000000000	0.00000000000000	15.60230500000000	0.00000000000000	0.00000000000000	0.00000000000000	0.00000000000000	
9.09163700000000	9.12769100000000	706.73793499999999	37.06778000000000	0.23141600000000	0.00000000000000	0.08152000000000	0.00000000000000	0.00000000000000	0.00000000000000	0.00000000000000	0.00000000000000	0.00000000000000	0.00000000000000	15.64940000000000	0.00000000000000	0.00000000000000	0.00000000000000	0.00000000000000	
9.09330300000000	8.64503400000000	706.87067900000000	37.05257300000000	0.23070200000000	0.00000000000000	0.08149400000000	0.00000000000000	0.00000000000000	0.00000000000000	0.00000000000000	0.00000000000000	0.00000000000000	0.00000000000000	15.69965700000000	0.00000000000000	0.00000000000000	0.00000000000000	0.00000000000000	
9.09497300000000	8.15649200000000	707.00513599999999	37.03953600000000	0.22999000000000	0.00000000000000	0.08146700000000	0.00000000000000	0.00000000000000	0.00000000000000	0.00000000000000	0.00000000000000	0.00000000000000	0.00000000000000	15.75301600000000	0.00000000000000	0.00000000000000	0.00000000000000	0.00000000000000	
9.09663500000000	7.66166500000000	707.14183400000002	37.02867100000000	0.22928000000000	0.00000000000000	0.08144000000000	0.00000000000000	0.00000000000000	0.00000000000000	0.00000000000000	0.00000000000000	0.00000000000000	0.00000000000000	15.80942100000000	0.00000000000000	0.00000000000000	0.00000000000000	0.00000000000000	
9.09830300000000	7.16015700000000	707.28145199999994	37.01998400000000	0.22856800000000	0.00000000000000	0.08141300000000	0.00000000000000	0.00000000000000	0.00000000000000	0.00000000000000	0.00000000000000	0.00000000000000	0.00000000000000	15.86881400000000	0.00000000000000	0.00000000000000	0.00000000000000	0.00000000000000	
9.09997400000000	6.65157600000000	707.42481399999997	37.01349200000000	0.22785400000000	0.00000000000000	0.08138500000000	0.00000000000000	0.00000000000000	0.00000000000000	0.00000000000000	0.00000000000000	0.00000000000000	0.00000000000000	15.93114200000000	0.00000000000000	0.00000000000000	0.00000000000000	0.00000000000000	
9.10163600000000	6.13553300000000	707.57289100000003	37.00921600000000	0.22713600000000	0.00000000000000	0.08135800000000	0.00000000000000	0.00000000000000	0.00000000000000	0.00000000000000	0.00000000000000	0.00000000000000	0.00000000000000	15.99635100000000	0.00000000000000	0.00000000000000	0.00000000000000	0.00000000000000	
9.10329900000000	5.61164900000000	707.72679800000003	37.00718600000000	0.22641100000000	0.00000000000000	0.08133000000000	0.00000000000000	0.00000000000000	0.00000000000000	0.00000000000000	0.00000000000000	0.00000000000000	0.00000000000000	16.06439200000000	0.00000000000000	0.00000000000000	0.00000000000000	0.00000000000000	
9.10496800000000	5.07955000000000	707.88779000000000	37.00743600000000	0.22567700000000	0.00000000000000	0.08130300000000	0.00000000000000	0.00000000000000	0.00000000000000	0.00000000000000	0.00000000000000	0.00000000000000	0.00000000000000	16.13521500000000	0.00000000000000	0.00000000000000	0.00000000000000	0.00000000000000	
9.10664600000000	4.53887700000000	708.05726000000004	37.01001100000000	0.22493400000000	0.00000000000000	0.08127600000000	0.00000000000000	0.00000000000000	0.00000000000000	0.00000000000000	0.00000000000000	0.00000000000000	0.00000000000000	16.20877300000000	0.00000000000000	0.00000000000000	0.00000000000000	0.00000000000000	
9.10830100000000	3.98928000000000	708.23673099999996	37.01496100000000	0.22417900000000	0.00000000000000	0.08125000000000	0.00000000000000	0.00000000000000	0.00000000000000	0.00000000000000	0.00000000000000	0.00000000000000	0.00000000000000	16.28502200000000	0.00000000000000	0.00000000000000	0.00000000000000	0.00000000000000	
9.10997300000000	3.43042600000000	708.42785500000002	37.02234400000000	0.22341100000000	0.00000000000000	0.08122400000000	0.00000000000000	0.00000000000000	0.00000000000000	0.00000000000000	0.00000000000000	0.00000000000000	0.00000000000000	16.36391900000000	0.00000000000000	0.00000000000000	0.00000000000000	0.00000000000000	
9.11164100000000	2.86199600000000	708.63240399999995	37.03222700000000	0.22262800000000	0.00000000000000	0.08119900000000	0.00000000000000	0.00000000000000	0.00000000000000	0.00000000000000	0.00000000000000	0.00000000000000	0.00000000000000	16.44542300000000	0.00000000000000	0.00000000000000	0.00000000000000	0.00000000000000	
9.11329900000000	2.28369100000000	708.85226200000000	37.04468400000000	0.22182800000000	0.00000000000000	0.08117500000000	0.00000000000000	0.00000000000000	0.00000000000000	0.00000000000000	0.00000000000000	0.00000000000000	0.00000000000000	16.52949500000000	0.00000000000000	0.00000000000000	0.00000000000000	0.00000000000000	
9.11496900000000	1.69523200000000	709.08942100000002	37.05979700000000	0.22101200000000	0.00000000000000	0.08115100000000	0.00000000000000	0.00000000000000	0.00000000000000	0.00000000000000	0.00000000000000	0.00000000000000	0.00000000000000	16.61609900000000	0.00000000000000	0.00000000000000	0.00000000000000	0.00000000000000	
9.11663500000000	1.09635900000000	709.34597099999996	37.07765600000000	0.22017700000000	0.00000000000000	0.08112900000000	0.00000000000000	0.00000000000000	0.00000000000000	0.00000000000000	0.00000000000000	0.00000000000000	0.00000000000000	16.70519900000000	0.00000000000000	0.00000000000000	0.00000000000000	0.00000000000000	
9.11829900000000	0.48683800000000	709.62409100000002	37.09835900000000	0.21932200000000	0.00000000000000	0.08110700000000	0.00000000000000	0.00000000000000	0.00000000000000	0.00000000000000	0.00000000000000	0.00000000000000	0.00000000000000	16.79676400000000	0.00000000000000	0.00000000000000	0.00000000000000	0.00000000000000	
9.11997300000000	-0.13354100000000	709.92603999999994	37.12201600000000	0.21844600000000	0.00000000000000	0.08108700000000	0.00000000000000	0.00000000000000	0.00000000000000	0.00000000000000	0.00000000000000	0.00000000000000	0.00000000000000	16.89076200000000	0.00000000000000	0.00000000000000	0.00000000000000	0.00000000000000	
9.12163300000000	-0.76496200000000	710.25414699999999	37.14874000000000	0.21754900000000	0.00000000000000	0.08106800000000	0.00000000000000	0.00000000000000	0.00000000000000	0.00000000000000	0.00000000000000	0.00000000000000	0.00000000000000	16.98716300000000	0.00000000000000	0.00000000000000	0.00000000000000	0.00000000000000	
9.12330600000000	-1.40758100000000	710.61080200000004	37.17865700000000	0.21663000000000	0.00000000000000	0.08105000000000	0.00000000000000	0.00000000000000	0.00000000000000	0.00000000000000	0.00000000000000	0.00000000000000	0.00000000000000	17.08593800000000	0.00000000000000	0.00000000000000	0.00000000000000	0.00000000000000	
9.12497200000000	-2.06152300000000	710.99844099999996	37.21190000000000	0.21568900000000	0.00000000000000	0.08103300000000	0.00000000000000	0.00000000000000	0.00000000000000	0.00000000000000	0.00000000000000	0.00000000000000	0.00000000000000	17.18706100000000	0.00000000000000	0.00000000000000	0.00000000000000	0.00000000000000	
9.12663200000000	-2.72688600000000	711.41954099999998	37.24860900000000	0.21472500000000	0.00000000000000	0.08101800000000	0.00000000000000	0.00000000000000	0.00000000000000	0.00000000000000	0.00000000000000	0.00000000000000	0.00000000000000	17.29050400000000	0.00000000000000	0.00000000000000	0.00000000000000	0.00000000000000	
9.12830200000000	-3.40373200000000	711.87660200000005	37.28893600000000	0.21373700000000	0.00000000000000	0.08100400000000	0.00000000000000	0.00000000000000	0.00000000000000	0.00000000000000	0.00000000000000	0.00000000000000	0.00000000000000	17.39624100000000	0.00000000000000	0.00000000000000	0.00000000000000	0.00000000000000	
9.12997400000000	-4.09209400000000	712.37213899999995	37.33303900000000	0.21272600000000	0.00000000000000	0.08099100000000	0.00000000000000	0.00000000000000	0.00000000000000	0.00000000000000	0.00000000000000	0.00000000000000	0.00000000000000	17.50424700000000	0.00000000000000	0.00000000000000	0.00000000000000	0.00000000000000	
9.13163700000000	-4.79196900000000	712.90866700000004	37.38108500000000	0.21169200000000	0.00000000000000	0.08098000000000	0.00000000000000	0.00000000000000	0.00000000000000	0.00000000000000	0.00000000000000	0.00000000000000	0.00000000000000	17.61449600000000	0.00000000000000	0.00000000000000	0.00000000000000	0.00000000000000	
9.13330300000000	-5.50332000000000	713.48869100000002	37.43324700000000	0.21063500000000	0.00000000000000	0.08097100000000	0.00000000000000	0.00000000000000	0.00000000000000	0.00000000000000	0.00000000000000	0.00000000000000	0.00000000000000	17.72696100000000	0.00000000000000	0.00000000000000	0.00000000000000	0.00000000000000	
9.13497000000000	-6.22607600000000	714.11469099999999	37.48970900000000	0.20955600000000	0.00000000000000	0.08096300000000	0.00000000000000	0.00000000000000	0.00000000000000	0.00000000000000	0.00000000000000	0.00000000000000	0.00000000000000	17.84161400000000	0.00000000000000	0.00000000000000	0.00000000000000	0.00000000000000	
